<svg width="92" height="31" viewBox="0 0 92 31" fill="none" xmlns="http://www.w3.org/2000/svg">
<g filter="url(#filter0_d_1402_1400)">
<path d="M4.2992 22V1.14H8.1072V18.64H17.0392V22H4.2992ZM29.2315 22.336C27.7008 22.336 26.2728 22.0653 24.9475 21.524C23.6221 20.9827 22.4648 20.2267 21.4755 19.256C20.4861 18.2853 19.7115 17.1467 19.1515 15.84C18.6101 14.5147 18.3395 13.0867 18.3395 11.556C18.3395 10.0067 18.6101 8.57867 19.1515 7.272C19.6928 5.96533 20.4581 4.82667 21.4475 3.856C22.4368 2.88533 23.5941 2.13867 24.9195 1.616C26.2448 1.07467 27.6821 0.803999 29.2315 0.803999C30.7808 0.803999 32.2181 1.07467 33.5435 1.616C34.8688 2.15733 36.0261 2.91333 37.0155 3.884C38.0048 4.836 38.7701 5.96533 39.3115 7.272C39.8715 8.57867 40.1515 10.0067 40.1515 11.556C40.1515 13.0867 39.8715 14.5147 39.3115 15.84C38.7515 17.1467 37.9768 18.2853 36.9875 19.256C35.9981 20.2267 34.8408 20.9827 33.5155 21.524C32.2088 22.0653 30.7808 22.336 29.2315 22.336ZM29.2315 18.864C30.2581 18.864 31.2008 18.6867 32.0595 18.332C32.9181 17.9587 33.6648 17.4453 34.2995 16.792C34.9528 16.1387 35.4475 15.364 35.7835 14.468C36.1381 13.572 36.3155 12.6013 36.3155 11.556C36.3155 10.5107 36.1381 9.54933 35.7835 8.672C35.4475 7.776 34.9528 7.00133 34.2995 6.348C33.6648 5.676 32.9181 5.16267 32.0595 4.808C31.2008 4.45333 30.2581 4.276 29.2315 4.276C28.2235 4.276 27.2901 4.45333 26.4315 4.808C25.5728 5.16267 24.8168 5.676 24.1635 6.348C23.5288 7.00133 23.0341 7.776 22.6795 8.672C22.3248 9.54933 22.1475 10.5107 22.1475 11.556C22.1475 12.6013 22.3248 13.572 22.6795 14.468C23.0341 15.364 23.5288 16.1387 24.1635 16.792C24.8168 17.4453 25.5728 17.9587 26.4315 18.332C27.2901 18.6867 28.2235 18.864 29.2315 18.864ZM53.4215 22.336C51.9282 22.336 50.5468 22.0653 49.2775 21.524C48.0082 20.9827 46.8975 20.2267 45.9455 19.256C44.9935 18.2853 44.2468 17.1467 43.7055 15.84C43.1828 14.5333 42.9215 13.1053 42.9215 11.556C42.9215 10.0067 43.1735 8.57867 43.6775 7.272C44.2002 5.94667 44.9282 4.808 45.8615 3.856C46.8135 2.88533 47.9242 2.13867 49.1935 1.616C50.4628 1.07467 51.8442 0.803999 53.3375 0.803999C54.8308 0.803999 56.1655 1.056 57.3415 1.56C58.5362 2.064 59.5442 2.736 60.3655 3.576C61.1868 4.39733 61.7748 5.30267 62.1295 6.292L58.7415 7.916C58.3495 6.83333 57.6868 5.956 56.7535 5.284C55.8202 4.612 54.6815 4.276 53.3375 4.276C52.0308 4.276 50.8735 4.584 49.8655 5.2C48.8762 5.816 48.1015 6.66533 47.5415 7.748C47.0002 8.83067 46.7295 10.1 46.7295 11.556C46.7295 13.012 47.0095 14.2907 47.5695 15.392C48.1482 16.4747 48.9415 17.324 49.9495 17.94C50.9575 18.556 52.1148 18.864 53.4215 18.864C54.4855 18.864 55.4655 18.6587 56.3615 18.248C57.2575 17.8187 57.9762 17.2213 58.5175 16.456C59.0588 15.672 59.3295 14.748 59.3295 13.684V12.088L61.0655 13.6H53.3375V10.38H63.1375V12.48C63.1375 14.0853 62.8668 15.504 62.3255 16.736C61.7842 17.968 61.0468 19.004 60.1135 19.844C59.1988 20.6653 58.1628 21.2907 57.0055 21.72C55.8482 22.1307 54.6535 22.336 53.4215 22.336ZM76.4268 22.336C74.8961 22.336 73.4681 22.0653 72.1428 21.524C70.8174 20.9827 69.6601 20.2267 68.6708 19.256C67.6814 18.2853 66.9068 17.1467 66.3468 15.84C65.8054 14.5147 65.5348 13.0867 65.5348 11.556C65.5348 10.0067 65.8054 8.57867 66.3468 7.272C66.8881 5.96533 67.6534 4.82667 68.6428 3.856C69.6321 2.88533 70.7894 2.13867 72.1148 1.616C73.4401 1.07467 74.8774 0.803999 76.4268 0.803999C77.9761 0.803999 79.4134 1.07467 80.7388 1.616C82.0641 2.15733 83.2214 2.91333 84.2108 3.884C85.2001 4.836 85.9654 5.96533 86.5068 7.272C87.0668 8.57867 87.3468 10.0067 87.3468 11.556C87.3468 13.0867 87.0668 14.5147 86.5068 15.84C85.9468 17.1467 85.1721 18.2853 84.1828 19.256C83.1934 20.2267 82.0361 20.9827 80.7108 21.524C79.4041 22.0653 77.9761 22.336 76.4268 22.336ZM76.4268 18.864C77.4534 18.864 78.3961 18.6867 79.2548 18.332C80.1134 17.9587 80.8601 17.4453 81.4948 16.792C82.1481 16.1387 82.6428 15.364 82.9788 14.468C83.3334 13.572 83.5108 12.6013 83.5108 11.556C83.5108 10.5107 83.3334 9.54933 82.9788 8.672C82.6428 7.776 82.1481 7.00133 81.4948 6.348C80.8601 5.676 80.1134 5.16267 79.2548 4.808C78.3961 4.45333 77.4534 4.276 76.4268 4.276C75.4188 4.276 74.4854 4.45333 73.6268 4.808C72.7681 5.16267 72.0121 5.676 71.3588 6.348C70.7241 7.00133 70.2294 7.776 69.8748 8.672C69.5201 9.54933 69.3428 10.5107 69.3428 11.556C69.3428 12.6013 69.5201 13.572 69.8748 14.468C70.2294 15.364 70.7241 16.1387 71.3588 16.792C72.0121 17.4453 72.7681 17.9587 73.6268 18.332C74.4854 18.6867 75.4188 18.864 76.4268 18.864Z" fill="#04503D"/>
<path d="M4.2992 22H3.2992V23H4.2992V22ZM4.2992 1.14V0.139998H3.2992V1.14H4.2992ZM8.1072 1.14H9.1072V0.139998H8.1072V1.14ZM8.1072 18.64H7.1072V19.64H8.1072V18.64ZM17.0392 18.64H18.0392V17.64H17.0392V18.64ZM17.0392 22V23H18.0392V22H17.0392ZM5.2992 22V1.14H3.2992V22H5.2992ZM4.2992 2.14H8.1072V0.139998H4.2992V2.14ZM7.1072 1.14V18.64H9.1072V1.14H7.1072ZM8.1072 19.64H17.0392V17.64H8.1072V19.64ZM16.0392 18.64V22H18.0392V18.64H16.0392ZM17.0392 21H4.2992V23H17.0392V21ZM24.9475 21.524L24.5693 22.4498L24.9475 21.524ZM21.4755 19.256L20.7751 19.9698L20.7751 19.9698L21.4755 19.256ZM19.1515 15.84L18.2257 16.2181L18.2289 16.2261L18.2323 16.2339L19.1515 15.84ZM19.1515 7.272L20.0753 7.65474L20.0753 7.65474L19.1515 7.272ZM21.4475 3.856L22.1478 4.56981L22.1478 4.56981L21.4475 3.856ZM24.9195 1.616L25.2863 2.54634L25.2976 2.54175L24.9195 1.616ZM33.5435 1.616L33.9216 0.690244L33.9216 0.690244L33.5435 1.616ZM37.0155 3.884L36.3151 4.59784L36.3221 4.60457L37.0155 3.884ZM39.3115 7.272L38.3875 7.65477L38.3923 7.66592L39.3115 7.272ZM39.3115 15.84L40.2306 16.2339L40.2326 16.2292L39.3115 15.84ZM36.9875 19.256L36.2871 18.5422L36.2871 18.5422L36.9875 19.256ZM33.5155 21.524L33.1373 20.5982L33.1327 20.6001L33.5155 21.524ZM32.0595 18.332L32.4412 19.2563L32.4497 19.2527L32.4582 19.2491L32.0595 18.332ZM34.2995 16.792L33.5923 16.0849L33.5872 16.09L33.5822 16.0952L34.2995 16.792ZM35.7835 14.468L34.8536 14.1L34.8503 14.1084L34.8471 14.1169L35.7835 14.468ZM35.7835 8.672L34.8471 9.02312L34.8516 9.03501L34.8563 9.04679L35.7835 8.672ZM34.2995 6.348L33.5724 7.03462L33.5822 7.04501L33.5923 7.05511L34.2995 6.348ZM24.1635 6.348L23.4465 5.65092L23.4462 5.65121L24.1635 6.348ZM22.6795 8.672L23.6066 9.0468L23.6093 9.04005L22.6795 8.672ZM22.6795 14.468L23.6093 14.1L23.6093 14.1L22.6795 14.468ZM24.1635 16.792L23.4462 17.4888L23.4512 17.494L23.4563 17.4991L24.1635 16.792ZM26.4315 18.332L26.0327 19.2491L26.0412 19.2527L26.0497 19.2563L26.4315 18.332ZM29.2315 21.336C27.8214 21.336 26.5228 21.0872 25.3256 20.5982L24.5693 22.4498C26.0228 23.0434 27.5802 23.336 29.2315 23.336V21.336ZM25.3256 20.5982C24.1163 20.1043 23.0694 19.419 22.1758 18.5422L20.7751 19.9698C21.8601 21.0344 23.1279 21.861 24.5693 22.4498L25.3256 20.5982ZM22.1758 18.5422C21.282 17.6652 20.5806 16.636 20.0706 15.4461L18.2323 16.2339C18.8423 17.6573 19.6903 18.9054 20.7751 19.9698L22.1758 18.5422ZM20.0772 15.4619C19.5882 14.2647 19.3395 12.9661 19.3395 11.556H17.3395C17.3395 13.2073 17.632 14.7646 18.2257 16.2181L20.0772 15.4619ZM19.3395 11.556C19.3395 10.1254 19.5889 8.82894 20.0753 7.65474L18.2276 6.88926C17.6314 8.32839 17.3395 9.88792 17.3395 11.556H19.3395ZM20.0753 7.65474C20.5662 6.46973 21.2565 5.44432 22.1478 4.56981L20.7471 3.14219C19.6598 4.20902 18.8193 5.46094 18.2276 6.88926L20.0753 7.65474ZM22.1478 4.56981C23.0389 3.69553 24.082 3.02123 25.2863 2.54627L24.5526 0.685726C23.1063 1.2561 21.8347 2.07514 20.7471 3.14219L22.1478 4.56981ZM25.2976 2.54175C26.4933 2.05335 27.801 1.804 29.2315 1.804V-0.196001C27.5632 -0.196001 25.9963 0.0959774 24.5413 0.690244L25.2976 2.54175ZM29.2315 1.804C30.6619 1.804 31.9696 2.05335 33.1653 2.54175L33.9216 0.690244C32.4666 0.0959774 30.8997 -0.196001 29.2315 -0.196001V1.804ZM33.1653 2.54175C34.3746 3.03566 35.4215 3.72103 36.3151 4.59781L37.7158 3.17019C36.6308 2.10563 35.363 1.279 33.9216 0.690244L33.1653 2.54175ZM36.3221 4.60457C37.2091 5.45813 37.8974 6.47143 38.3876 7.65474L40.2353 6.88926C39.6429 5.45924 38.8005 4.21387 37.7088 3.16343L36.3221 4.60457ZM38.3923 7.66592C38.8943 8.83731 39.1515 10.1298 39.1515 11.556H41.1515C41.1515 9.88351 40.8486 8.32003 40.2306 6.87808L38.3923 7.66592ZM39.1515 11.556C39.1515 12.9616 38.895 14.2563 38.3903 15.4508L40.2326 16.2292C40.8479 14.773 41.1515 13.2117 41.1515 11.556H39.1515ZM38.3923 15.4461C37.8823 16.636 37.1809 17.6652 36.2871 18.5422L37.6878 19.9698C38.7726 18.9054 39.6206 17.6573 40.2306 16.2339L38.3923 15.4461ZM36.2871 18.5422C35.3935 19.419 34.3466 20.1043 33.1373 20.5982L33.8936 22.4498C35.335 21.861 36.6028 21.0344 37.6878 19.9698L36.2871 18.5422ZM33.1327 20.6001C31.9585 21.0866 30.662 21.336 29.2315 21.336V23.336C30.8995 23.336 32.4591 23.0441 33.8982 22.4479L33.1327 20.6001ZM29.2315 19.864C30.3753 19.864 31.4493 19.6659 32.4412 19.2563L31.6777 17.4077C30.9522 17.7074 30.1409 17.864 29.2315 17.864V19.864ZM32.4582 19.2491C33.433 18.8253 34.2887 18.2382 35.0167 17.4888L33.5822 16.0952C33.0409 16.6524 32.4033 17.0921 31.6607 17.4149L32.4582 19.2491ZM35.0066 17.4991C35.7645 16.7412 36.3355 15.8439 36.7198 14.8191L34.8471 14.1169C34.5594 14.8841 34.1411 15.5361 33.5923 16.0849L35.0066 17.4991ZM36.7133 14.836C37.1181 13.8133 37.3155 12.7166 37.3155 11.556H35.3155C35.3155 12.4861 35.1581 13.3307 34.8536 14.1L36.7133 14.836ZM37.3155 11.556C37.3155 10.3957 37.1182 9.30551 36.7106 8.29721L34.8563 9.04679C35.1581 9.79316 35.3155 10.6257 35.3155 11.556H37.3155ZM36.7198 8.32088C36.3355 7.29611 35.7645 6.3988 35.0066 5.64089L33.5923 7.05511C34.1411 7.60387 34.5594 8.25589 34.8471 9.02312L36.7198 8.32088ZM35.0265 5.66138C34.2943 4.88613 33.4298 4.29206 32.4412 3.88374L31.6777 5.73226C32.4065 6.03328 33.0353 6.46587 33.5724 7.03462L35.0265 5.66138ZM32.4412 3.88374C31.4493 3.47405 30.3753 3.276 29.2315 3.276V5.276C30.1409 5.276 30.9522 5.43261 31.6777 5.73226L32.4412 3.88374ZM29.2315 3.276C28.1037 3.276 27.0394 3.47495 26.0497 3.88374L26.8132 5.73226C27.5409 5.43171 28.3432 5.276 29.2315 5.276V3.276ZM26.0497 3.88374C25.0638 4.29095 24.194 4.88201 23.4465 5.65092L24.8804 7.04508C25.4396 6.46999 26.0818 6.03438 26.8132 5.73226L26.0497 3.88374ZM23.4462 5.65121C22.7144 6.40446 22.15 7.29265 21.7496 8.30395L23.6093 9.04005C23.9183 8.25935 24.3431 7.59821 24.8807 7.04479L23.4462 5.65121ZM21.7523 8.29721C21.3447 9.30551 21.1475 10.3957 21.1475 11.556H23.1475C23.1475 10.6257 23.3048 9.79316 23.6066 9.04679L21.7523 8.29721ZM21.1475 11.556C21.1475 12.7166 21.3448 13.8133 21.7496 14.836L23.6093 14.1C23.3048 13.3307 23.1475 12.4861 23.1475 11.556H21.1475ZM21.7496 14.836C22.15 15.8474 22.7144 16.7355 23.4462 17.4888L24.8807 16.0952C24.3431 15.5418 23.9183 14.8806 23.6093 14.1L21.7496 14.836ZM23.4563 17.4991C24.1996 18.2424 25.0606 18.8264 26.0327 19.2491L26.8302 17.4149C26.085 17.0909 25.434 16.6483 24.8706 16.0849L23.4563 17.4991ZM26.0497 19.2563C27.0394 19.665 28.1037 19.864 29.2315 19.864V17.864C28.3432 17.864 27.5409 17.7083 26.8132 17.4077L26.0497 19.2563ZM49.2775 21.524L48.8852 22.4438L48.8852 22.4438L49.2775 21.524ZM45.9455 19.256L45.2315 19.9562L45.9455 19.256ZM43.7055 15.84L42.7769 16.2114L42.7816 16.2227L43.7055 15.84ZM43.6775 7.272L42.7472 6.90512L42.7445 6.91213L43.6775 7.272ZM45.8615 3.856L45.1475 3.15579L45.1474 3.15593L45.8615 3.856ZM49.1935 1.616L49.5743 2.54075L49.5858 2.53584L49.1935 1.616ZM57.3415 1.56L56.9476 2.47916L56.9528 2.48136L57.3415 1.56ZM60.3655 3.576L59.6504 4.27516L59.6584 4.2831L60.3655 3.576ZM62.1295 6.292L62.5617 7.19375L63.3753 6.80379L63.0708 5.95454L62.1295 6.292ZM58.7415 7.916L57.8012 8.25644L58.1774 9.29535L59.1737 8.81775L58.7415 7.916ZM56.7535 5.284L56.1692 6.09553L56.1692 6.09553L56.7535 5.284ZM49.8655 5.2L49.344 4.34669L49.3369 4.3511L49.8655 5.2ZM47.5415 7.748L46.6532 7.28853L46.6471 7.30079L47.5415 7.748ZM47.5695 15.392L46.6781 15.8452L46.6827 15.8544L46.6876 15.8634L47.5695 15.392ZM49.9495 17.94L50.4709 17.0867L50.4709 17.0867L49.9495 17.94ZM56.3615 18.248L56.7781 19.1571L56.7859 19.1535L56.7936 19.1498L56.3615 18.248ZM58.5175 16.456L59.334 17.0335L59.3404 17.0242L58.5175 16.456ZM59.3295 12.088L59.9863 11.3339L58.3295 9.89092V12.088H59.3295ZM61.0655 13.6V14.6H63.7362L61.7223 12.8459L61.0655 13.6ZM53.3375 13.6H52.3375V14.6H53.3375V13.6ZM53.3375 10.38V9.38H52.3375V10.38H53.3375ZM63.1375 10.38H64.1375V9.38H63.1375V10.38ZM60.1135 19.844L60.7816 20.588L60.7824 20.5873L60.1135 19.844ZM57.0055 21.72L57.3399 22.6624L57.3466 22.66L57.3533 22.6576L57.0055 21.72ZM53.4215 21.336C52.0518 21.336 50.8052 21.0884 49.6698 20.6042L48.8852 22.4438C50.2884 23.0423 51.8045 23.336 53.4215 23.336V21.336ZM49.6698 20.6042C48.5192 20.1135 47.5182 19.4314 46.6594 18.5558L45.2315 19.9562C46.2767 21.0219 47.4971 21.8519 48.8852 22.4438L49.6698 20.6042ZM46.6594 18.5558C45.8007 17.6802 45.1237 16.6505 44.6293 15.4573L42.7816 16.2227C43.37 17.6428 44.1863 18.8905 45.2315 19.9562L46.6594 18.5558ZM44.634 15.4686C44.1631 14.2914 43.9215 12.991 43.9215 11.556H41.9215C41.9215 13.2197 42.2025 14.7752 42.777 16.2114L44.634 15.4686ZM43.9215 11.556C43.9215 10.1167 44.1552 8.81214 44.6105 7.63187L42.7445 6.91213C42.1917 8.34519 41.9215 9.89667 41.9215 11.556H43.9215ZM44.6078 7.63887C45.0848 6.42929 45.7421 5.40616 46.5756 4.55607L45.1474 3.15593C44.1142 4.20984 43.3155 5.46404 42.7472 6.90513L44.6078 7.63887ZM46.5754 4.55621C47.4318 3.68309 48.4288 3.01234 49.5742 2.54068L48.8127 0.691321C47.4195 1.26499 46.1952 2.08758 45.1475 3.15579L46.5754 4.55621ZM49.5858 2.53584C50.7212 2.05162 51.9678 1.804 53.3375 1.804V-0.196001C51.7205 -0.196001 50.2044 0.0977113 48.8012 0.696155L49.5858 2.53584ZM53.3375 1.804C54.7178 1.804 55.9151 2.03665 56.9476 2.47914L57.7354 0.640855C56.4159 0.0753462 54.9439 -0.196001 53.3375 -0.196001V1.804ZM56.9528 2.48136C58.0377 2.93908 58.9313 3.53956 59.6505 4.27512L61.0805 2.87688C60.157 1.93244 59.0346 1.18892 57.7302 0.638635L56.9528 2.48136ZM59.6584 4.2831C60.3864 5.01112 60.8883 5.79318 61.1881 6.62946L63.0708 5.95454C62.6613 4.81216 61.9872 3.78354 61.0726 2.86889L59.6584 4.2831ZM61.6972 5.39024L58.3092 7.01424L59.1737 8.81775L62.5617 7.19375L61.6972 5.39024ZM59.6818 7.57556C59.2213 6.30385 58.4347 5.26224 57.3378 4.47247L56.1692 6.09553C56.9389 6.64976 57.4777 7.36281 57.8012 8.25644L59.6818 7.57556ZM57.3378 4.47247C56.2069 3.65821 54.8547 3.276 53.3375 3.276V5.276C54.5083 5.276 55.4334 5.56579 56.1692 6.09553L57.3378 4.47247ZM53.3375 3.276C51.8669 3.276 50.5254 3.62479 49.344 4.34672L50.3869 6.05328C51.2216 5.54321 52.1947 5.276 53.3375 5.276V3.276ZM49.3369 4.3511C48.1877 5.06666 47.292 6.05375 46.6533 7.28858L48.4297 8.20742C48.911 7.27691 49.5646 6.56534 50.394 6.0489L49.3369 4.3511ZM46.6471 7.30079C46.0236 8.54771 45.7295 9.9759 45.7295 11.556H47.7295C47.7295 10.2241 47.9767 9.11362 48.4359 8.19521L46.6471 7.30079ZM45.7295 11.556C45.7295 13.1415 46.035 14.5805 46.6781 15.8452L48.4609 14.9388C47.984 14.0008 47.7295 12.8825 47.7295 11.556H45.7295ZM46.6876 15.8634C47.3468 17.0968 48.2619 18.0806 49.428 18.7933L50.4709 17.0867C49.6211 16.5674 48.9495 15.8526 48.4514 14.9206L46.6876 15.8634ZM49.428 18.7933C50.6094 19.5152 51.9509 19.864 53.4215 19.864V17.864C52.2787 17.864 51.3056 17.5968 50.4709 17.0867L49.428 18.7933ZM53.4215 19.864C54.6177 19.864 55.7413 19.6323 56.7781 19.1571L55.9448 17.3389C55.1897 17.685 54.3533 17.864 53.4215 17.864V19.864ZM56.7936 19.1498C57.8337 18.6514 58.6883 17.9463 59.3339 17.0335L57.7011 15.8785C57.264 16.4964 56.6812 16.9859 55.9294 17.3462L56.7936 19.1498ZM59.3404 17.0242C60.0103 16.0539 60.3295 14.9263 60.3295 13.684H58.3295C58.3295 14.5697 58.1073 15.2901 57.6946 15.8878L59.3404 17.0242ZM60.3295 13.684V12.088H58.3295V13.684H60.3295ZM58.6727 12.8421L60.4087 14.3541L61.7223 12.8459L59.9863 11.3339L58.6727 12.8421ZM61.0655 12.6H53.3375V14.6H61.0655V12.6ZM54.3375 13.6V10.38H52.3375V13.6H54.3375ZM53.3375 11.38H63.1375V9.38H53.3375V11.38ZM62.1375 10.38V12.48H64.1375V10.38H62.1375ZM62.1375 12.48C62.1375 13.9731 61.8859 15.2506 61.41 16.3337L63.241 17.1383C63.8477 15.7574 64.1375 14.1976 64.1375 12.48H62.1375ZM61.41 16.3337C60.9215 17.4453 60.265 18.3623 59.4445 19.1007L60.7824 20.5873C61.8286 19.6457 62.6468 18.4907 63.241 17.1383L61.41 16.3337ZM59.4454 19.1C58.6247 19.8368 57.6975 20.3967 56.6577 20.7824L57.3533 22.6576C58.6281 22.1846 59.7729 21.4938 60.7816 20.588L59.4454 19.1ZM56.6711 20.7776C55.6215 21.15 54.5399 21.336 53.4215 21.336V23.336C54.767 23.336 56.0748 23.1113 57.3399 22.6624L56.6711 20.7776ZM72.1428 21.524L71.7646 22.4498L72.1428 21.524ZM68.6708 19.256L67.9704 19.9698L67.9704 19.9698L68.6708 19.256ZM66.3468 15.84L65.421 16.2181L65.4242 16.2261L65.4276 16.2339L66.3468 15.84ZM66.3468 7.272L67.2706 7.65474L67.2706 7.65474L66.3468 7.272ZM68.6428 3.856L69.3431 4.56981L69.3431 4.56981L68.6428 3.856ZM72.1148 1.616L72.4817 2.54634L72.4929 2.54175L72.1148 1.616ZM80.7388 1.616L81.1169 0.690244L81.1169 0.690244L80.7388 1.616ZM84.2108 3.884L83.5104 4.59784L83.5174 4.60457L84.2108 3.884ZM86.5068 7.272L85.5828 7.65477L85.5876 7.66592L86.5068 7.272ZM86.5068 15.84L87.4259 16.2339L87.4279 16.2292L86.5068 15.84ZM84.1828 19.256L83.4824 18.5422L83.4824 18.5422L84.1828 19.256ZM80.7108 21.524L80.3326 20.5982L80.328 20.6001L80.7108 21.524ZM79.2548 18.332L79.6365 19.2563L79.645 19.2527L79.6535 19.2491L79.2548 18.332ZM81.4948 16.792L80.7877 16.0849L80.7825 16.09L80.7775 16.0952L81.4948 16.792ZM82.9788 14.468L82.049 14.1L82.0456 14.1084L82.0424 14.1169L82.9788 14.468ZM82.9788 8.672L82.0424 9.02312L82.0469 9.03501L82.0517 9.04679L82.9788 8.672ZM81.4948 6.348L80.7678 7.03462L80.7776 7.04501L80.7877 7.05511L81.4948 6.348ZM71.3588 6.348L70.6418 5.65092L70.6415 5.65121L71.3588 6.348ZM69.8748 8.672L70.8019 9.0468L70.8046 9.04005L69.8748 8.672ZM69.8748 14.468L70.8046 14.1L70.8046 14.1L69.8748 14.468ZM71.3588 16.792L70.6415 17.4888L70.6465 17.494L70.6517 17.4991L71.3588 16.792ZM73.6268 18.332L73.228 19.2491L73.2365 19.2527L73.245 19.2563L73.6268 18.332ZM76.4268 21.336C75.0167 21.336 73.7181 21.0872 72.5209 20.5982L71.7646 22.4498C73.2181 23.0434 74.7755 23.336 76.4268 23.336V21.336ZM72.5209 20.5982C71.3117 20.1043 70.2647 19.419 69.3711 18.5422L67.9704 19.9698C69.0555 21.0344 70.3232 21.861 71.7646 22.4498L72.5209 20.5982ZM69.3711 18.5422C68.4773 17.6652 67.7759 16.636 67.2659 15.4461L65.4276 16.2339C66.0376 17.6573 66.8856 18.9054 67.9704 19.9698L69.3711 18.5422ZM67.2725 15.4619C66.7835 14.2647 66.5348 12.9661 66.5348 11.556H64.5348C64.5348 13.2073 64.8273 14.7646 65.421 16.2181L67.2725 15.4619ZM66.5348 11.556C66.5348 10.1254 66.7842 8.82894 67.2706 7.65474L65.4229 6.88926C64.8267 8.32839 64.5348 9.88792 64.5348 11.556H66.5348ZM67.2706 7.65474C67.7616 6.46973 68.4518 5.44432 69.3431 4.56981L67.9424 3.14219C66.8551 4.20902 66.0146 5.46094 65.4229 6.88926L67.2706 7.65474ZM69.3431 4.56981C70.2342 3.69553 71.2773 3.02123 72.4816 2.54627L71.7479 0.685726C70.3016 1.2561 69.03 2.07514 67.9424 3.14219L69.3431 4.56981ZM72.4929 2.54175C73.6886 2.05335 74.9964 1.804 76.4268 1.804V-0.196001C74.7585 -0.196001 73.1916 0.0959774 71.7366 0.690244L72.4929 2.54175ZM76.4268 1.804C77.8572 1.804 79.1649 2.05335 80.3606 2.54175L81.1169 0.690244C79.662 0.0959774 78.095 -0.196001 76.4268 -0.196001V1.804ZM80.3606 2.54175C81.5699 3.03566 82.6168 3.72103 83.5104 4.59781L84.9111 3.17019C83.8261 2.10563 82.5583 1.279 81.1169 0.690244L80.3606 2.54175ZM83.5174 4.60457C84.4044 5.45813 85.0927 6.47143 85.5829 7.65474L87.4306 6.88926C86.8382 5.45924 85.9958 4.21387 84.9041 3.16343L83.5174 4.60457ZM85.5876 7.66592C86.0896 8.83731 86.3468 10.1298 86.3468 11.556H88.3468C88.3468 9.88351 88.0439 8.32003 87.4259 6.87808L85.5876 7.66592ZM86.3468 11.556C86.3468 12.9616 86.0903 14.2563 85.5856 15.4508L87.4279 16.2292C88.0432 14.773 88.3468 13.2117 88.3468 11.556H86.3468ZM85.5876 15.4461C85.0776 16.636 84.3762 17.6652 83.4824 18.5422L84.8831 19.9698C85.968 18.9054 86.8159 17.6573 87.4259 16.2339L85.5876 15.4461ZM83.4824 18.5422C82.5888 19.419 81.5419 20.1043 80.3326 20.5982L81.0889 22.4498C82.5303 21.861 83.7981 21.0344 84.8831 19.9698L83.4824 18.5422ZM80.328 20.6001C79.1538 21.0866 77.8574 21.336 76.4268 21.336V23.336C78.0948 23.336 79.6544 23.0441 81.0935 22.4479L80.328 20.6001ZM76.4268 19.864C77.5706 19.864 78.6447 19.6659 79.6365 19.2563L78.873 17.4077C78.1475 17.7074 77.3362 17.864 76.4268 17.864V19.864ZM79.6535 19.2491C80.6283 18.8253 81.484 18.2382 82.212 17.4888L80.7775 16.0952C80.2362 16.6524 79.5986 17.0921 78.856 17.4149L79.6535 19.2491ZM82.2019 17.4991C82.9598 16.7412 83.5308 15.8439 83.9151 14.8191L82.0424 14.1169C81.7547 14.8841 81.3364 15.5361 80.7877 16.0849L82.2019 17.4991ZM83.9086 14.836C84.3134 13.8133 84.5108 12.7166 84.5108 11.556H82.5108C82.5108 12.4861 82.3535 13.3307 82.049 14.1L83.9086 14.836ZM84.5108 11.556C84.5108 10.3957 84.3135 9.30551 83.9059 8.29721L82.0517 9.04679C82.3534 9.79316 82.5108 10.6257 82.5108 11.556H84.5108ZM83.9151 8.32088C83.5308 7.29611 82.9598 6.3988 82.2019 5.64089L80.7877 7.05511C81.3364 7.60387 81.7547 8.25589 82.0424 9.02312L83.9151 8.32088ZM82.2218 5.66138C81.4896 4.88613 80.6251 4.29206 79.6365 3.88374L78.873 5.73226C79.6018 6.03328 80.2306 6.46587 80.7678 7.03462L82.2218 5.66138ZM79.6365 3.88374C78.6447 3.47405 77.5706 3.276 76.4268 3.276V5.276C77.3362 5.276 78.1475 5.43261 78.873 5.73226L79.6365 3.88374ZM76.4268 3.276C75.299 3.276 74.2347 3.47495 73.245 3.88374L74.0085 5.73226C74.7362 5.43171 75.5385 5.276 76.4268 5.276V3.276ZM73.245 3.88374C72.2591 4.29095 71.3893 4.88201 70.6418 5.65092L72.0758 7.04508C72.6349 6.46999 73.2771 6.03438 74.0085 5.73226L73.245 3.88374ZM70.6415 5.65121C69.9098 6.40446 69.3453 7.29265 68.945 8.30395L70.8046 9.04005C71.1136 8.25935 71.5384 7.59821 72.076 7.04479L70.6415 5.65121ZM68.9477 8.29721C68.54 9.30551 68.3428 10.3957 68.3428 11.556H70.3428C70.3428 10.6257 70.5002 9.79316 70.8019 9.04679L68.9477 8.29721ZM68.3428 11.556C68.3428 12.7166 68.5401 13.8133 68.945 14.836L70.8046 14.1C70.5001 13.3307 70.3428 12.4861 70.3428 11.556H68.3428ZM68.945 14.836C69.3453 15.8474 69.9098 16.7355 70.6415 17.4888L72.076 16.0952C71.5384 15.5418 71.1136 14.8806 70.8046 14.1L68.945 14.836ZM70.6517 17.4991C71.3949 18.2424 72.2559 18.8264 73.228 19.2491L74.0255 17.4149C73.2803 17.0909 72.6293 16.6483 72.0659 16.0849L70.6517 17.4991ZM73.245 19.2563C74.2347 19.665 75.299 19.864 76.4268 19.864V17.864C75.5385 17.864 74.7362 17.7083 74.0085 17.4077L73.245 19.2563Z" fill="black"/>
</g>
<defs>
<filter id="filter0_d_1402_1400" x="0.299316" y="0.803986" width="91.0474" height="29.532" filterUnits="userSpaceOnUse" color-interpolation-filters="sRGB">
<feFlood flood-opacity="0" result="BackgroundImageFix"/>
<feColorMatrix in="SourceAlpha" type="matrix" values="0 0 0 0 0 0 0 0 0 0 0 0 0 0 0 0 0 0 127 0" result="hardAlpha"/>
<feOffset dy="4"/>
<feGaussianBlur stdDeviation="2"/>
<feComposite in2="hardAlpha" operator="out"/>
<feColorMatrix type="matrix" values="0 0 0 0 0 0 0 0 0 0 0 0 0 0 0 0 0 0 0.25 0"/>
<feBlend mode="normal" in2="BackgroundImageFix" result="effect1_dropShadow_1402_1400"/>
<feBlend mode="normal" in="SourceGraphic" in2="effect1_dropShadow_1402_1400" result="shape"/>
</filter>
</defs>
</svg>
